<?xml version="1.0" standalone="no"?>
<!DOCTYPE svg PUBLIC "-//W3C//DTD SVG 20010904//EN"
 "http://www.w3.org/TR/2001/REC-SVG-20010904/DTD/svg10.dtd">
<svg version="1.0" xmlns="http://www.w3.org/2000/svg"
 width="546.000000pt" height="638.000000pt" viewBox="0 0 546.000000 638.000000"
 preserveAspectRatio="xMidYMid meet">
<metadata>
Created by potrace 1.15, written by Peter Selinger 2001-2017
</metadata>
<g transform="translate(0.000000,638.000000) scale(0.100000,-0.100000)"
fill="#000000" stroke="none">
<path d="M2396 6222 c-3 -5 -12 -54 -20 -110 -9 -56 -23 -117 -32 -134 -47
-93 -145 -201 -285 -314 l-74 -61 -105 0 c-88 0 -118 -5 -185 -27 -339 -115
-498 -488 -346 -811 27 -60 29 -70 29 -201 1 -199 26 -313 97 -439 62 -110
158 -208 290 -294 38 -25 72 -47 74 -48 2 -2 -3 -11 -11 -20 -23 -26 -38 -59
-69 -143 -14 -41 -33 -90 -40 -108 -13 -31 -12 -34 11 -52 19 -15 84 -51 118
-66 5 -2 -44 -72 -78 -112 -129 -152 -211 -260 -286 -374 -48 -73 -98 -145
-110 -160 -33 -41 -127 -231 -168 -340 -76 -203 -116 -425 -116 -636 0 -200
37 -348 115 -467 56 -84 172 -186 267 -235 94 -48 93 -48 86 -55 -3 -3 -29 7
-59 22 -46 24 -65 28 -139 28 -74 0 -92 -4 -143 -29 -68 -35 -147 -111 -184
-177 l-27 -47 -70 -7 c-235 -22 -554 -80 -698 -126 -269 -86 -234 -186 94
-269 321 -81 835 -136 1598 -171 329 -16 1381 -16 1710 0 909 42 1542 123
1765 225 l55 25 0 71 0 71 -46 20 c-159 67 -509 131 -969 174 -88 8 -165 15
-172 15 -6 0 -14 8 -18 19 -8 27 -94 114 -142 144 -23 14 -64 33 -92 43 l-51
16 87 52 c112 66 207 160 255 251 59 115 73 172 72 320 0 154 -17 246 -79 420
-52 148 -234 550 -355 785 -107 207 -230 459 -230 471 0 5 8 9 18 9 53 0 69
70 48 205 -21 130 -55 199 -119 242 l-47 31 67 48 c126 90 227 205 278 317 78
170 93 480 35 725 -11 46 -20 100 -20 121 0 56 -26 148 -65 226 -60 123 -171
226 -298 277 -28 12 -64 30 -78 39 -85 59 -307 146 -416 164 l-41 6 1 67 c1
75 -19 126 -53 137 -25 8 -50 -10 -50 -36 0 -30 -30 -109 -56 -148 -13 -20
-38 -45 -56 -56 l-33 -19 32 37 c91 104 113 238 52 303 -13 14 -34 24 -51 24
-26 0 -28 -2 -28 -44 0 -28 -8 -55 -23 -77 -27 -41 -113 -101 -183 -128 l-52
-20 10 42 c5 23 8 85 6 137 -5 125 -29 173 -107 213 -56 27 -86 34 -95 19z
m-521 -705 c-267 -229 -409 -428 -460 -643 -25 -103 -25 -104 -45 -58 -98 225
-10 512 200 653 97 64 203 98 310 99 l55 1 -60 -52z m576 -63 c30 -9 82 -31
117 -50 l63 -34 37 19 c53 27 131 41 224 41 l80 0 -16 -22 c-92 -126 -131
-214 -143 -320 l-6 -58 -173 0 -174 0 0 33 c-1 103 -66 254 -151 351 l-51 56
69 0 c38 0 94 -7 124 -16z m-174 -57 c207 -216 205 -557 -6 -766 -182 -182
-449 -218 -669 -91 l-54 31 7 42 c24 153 108 349 213 496 67 93 172 205 243
257 43 31 171 93 195 94 6 0 38 -28 71 -63z m871 7 c136 -30 293 -126 370
-226 86 -114 174 -332 226 -560 5 -23 0 -30 -48 -62 -29 -19 -89 -47 -132 -62
-98 -34 -225 -38 -319 -10 -296 87 -466 392 -382 683 26 91 57 148 117 215 46
52 36 51 168 22z m-330 -481 c34 -218 208 -411 422 -468 73 -19 230 -19 305 1
33 8 93 33 134 55 40 22 76 37 79 34 3 -3 6 -72 6 -153 0 -204 -34 -327 -120
-436 -38 -48 -155 -128 -247 -170 -162 -74 -446 -149 -671 -177 -257 -31 -565
22 -788 137 -76 40 -95 56 -153 126 -116 142 -188 286 -219 440 -16 79 -22
222 -8 216 4 -2 31 -16 59 -31 77 -40 155 -57 263 -57 108 0 176 16 270 61 89
44 206 161 248 249 35 72 62 167 62 217 l0 33 173 0 172 0 13 -77z m227 -1908
c254 -74 545 -281 721 -514 83 -110 168 -280 193 -391 25 -106 44 -392 36
-525 -19 -290 -97 -470 -233 -543 -100 -54 -339 -104 -632 -134 -188 -19 -715
-16 -928 5 -290 30 -525 81 -633 139 -291 154 -318 530 -73 1024 195 396 457
674 789 839 107 53 282 115 328 115 10 0 -2 -103 -19 -159 -13 -43 -11 -61 5
-61 4 0 13 11 19 25 19 41 92 114 167 167 67 48 72 50 121 44 28 -3 91 -17
139 -31z m-1573 -2016 c24 -11 59 -37 80 -56 50 -49 84 -27 36 24 -38 41 -11
48 78 20 109 -34 249 -63 376 -79 101 -12 108 -14 102 -33 -19 -65 -123 -137
-235 -163 -187 -44 -697 -81 -800 -59 -47 10 -79 41 -79 76 0 47 57 146 115
199 109 100 221 124 327 71z m2586 -2 c76 -38 118 -75 163 -141 33 -49 39 -67
37 -100 -5 -73 -73 -100 -298 -116 -269 -20 -577 -8 -685 26 -96 30 -174 123
-163 195 4 28 9 29 238 54 80 9 193 26 252 39 l107 22 -25 -29 c-25 -30 -28
-57 -8 -64 6 -2 23 15 39 37 28 40 73 75 130 97 48 20 153 10 213 -20z"/>
<path d="M2114 5086 c-42 -19 -64 -52 -64 -99 0 -116 177 -135 206 -22 21 82
-65 155 -142 121z"/>
<path d="M3060 5089 c-40 -16 -60 -49 -60 -101 0 -40 4 -50 31 -72 21 -18 42
-26 69 -26 27 0 48 8 69 26 26 22 31 33 31 70 0 54 -21 89 -62 103 -37 13 -45
13 -78 0z"/>
<path d="M2613 4605 c-29 -8 -70 -23 -90 -34 -51 -26 -163 -109 -163 -120 0
-8 258 -310 320 -375 17 -18 22 -12 156 190 77 115 140 214 142 220 4 15 -79
81 -133 105 -60 27 -165 33 -232 14z m222 -47 c64 -33 103 -73 90 -93 -6 -9
-59 -92 -120 -185 l-110 -170 -162 165 c-90 91 -163 169 -163 174 0 17 129 91
202 116 95 33 189 31 263 -7z"/>
</g>
</svg>
