<?xml version="1.0" standalone="no"?>
<!DOCTYPE svg PUBLIC "-//W3C//DTD SVG 20010904//EN"
 "http://www.w3.org/TR/2001/REC-SVG-20010904/DTD/svg10.dtd">
<svg version="1.0" xmlns="http://www.w3.org/2000/svg"
 width="106.000000pt" height="88.000000pt" viewBox="0 0 106.000000 88.000000"
 preserveAspectRatio="xMidYMid meet">
<metadata>
Created by potrace 1.15, written by Peter Selinger 2001-2017
</metadata>
<g transform="translate(0.000000,88.000000) scale(0.100000,-0.100000)"
fill="#000000" stroke="none">
<path d="M135 705 c-57 -56 -10 -155 137 -290 71 -64 239 -185 306 -219 22
-11 32 -22 28 -32 -3 -8 -1 -14 4 -14 10 0 31 29 132 183 39 59 108 152 152
205 45 53 91 113 102 133 l22 36 -27 -13 c-39 -19 -396 -29 -536 -15 -61 6
-143 20 -183 31 -92 26 -108 25 -137 -5z"/>
</g>
</svg>
