<?xml version="1.0" encoding="utf-8"?>
<!-- Generator: Adobe Illustrator 22.1.0, SVG Export Plug-In . SVG Version: 6.00 Build 0)  -->
<svg version="1.1" xmlns="http://www.w3.org/2000/svg" xmlns:xlink="http://www.w3.org/1999/xlink" x="0px" y="0px"
	 viewBox="0 0 612 792" style="enable-background:new 0 0 612 792;" xml:space="preserve">
<style type="text/css">
	.st0{display:none;}
	.st1{opacity:0.15;fill:#231F20;}
	.st2{fill:#F99F00;stroke:#000000;stroke-miterlimit:10;}
	.st3{fill:#F99F00;}
	.st4{fill:#4A7BBE;stroke:#000000;stroke-width:2;stroke-linecap:round;stroke-linejoin:round;stroke-miterlimit:10;}
	.st5{fill:#4A7BBE;}
	.st6{fill:#FFFFFF;}
	.st7{fill:#BA003E;stroke:#000000;stroke-width:3;stroke-linecap:round;stroke-linejoin:round;stroke-miterlimit:10;}
	.st8{fill:none;stroke:#000000;stroke-width:3;stroke-linecap:round;stroke-linejoin:round;stroke-miterlimit:10;}
	.st9{opacity:0.15;}
	.st10{stroke:#000000;stroke-miterlimit:10;}
	.st11{fill:none;stroke:#000000;stroke-width:3;stroke-miterlimit:10;}
	.st12{fill:#F9A34A;}
	.st13{fill-opacity:0.15;}
	.st14{fill-opacity:0.16;}
	.st15{opacity:0.14;fill:#231F20;}
	.st16{opacity:0.14;}
</style>
<g id="Layer_1" class="st0">
	
		<image style="display:inline;overflow:visible;" width="1440" height="900" xlink:href="C:\Users\EschV\Desktop\32619788_2010729785663825_3661985744743825408_n.jpg"  transform="matrix(1 0 0 1 5 -122)">
	</image>
</g>
<g id="Layer_5">
	<ellipse class="st1" cx="312.5" cy="699.2" rx="272.1" ry="33"/>
	<path class="st2" d="M201.6,645.3c0,0-11,11-26.2,19.3c-15.2,8.3,63.8,7,63.8,7l20.2-21.4L201.6,645.3z"/>
	<g>
		<path class="st3" d="M249.4,656.3c0,0,12.2,24.8-34.7,31c-46.8,6.2-85.4,11.7-79.2-9c6.2-20.7,35.4-42,57.3-16.5"/>
		<path d="M250.7,655.7c0.6,1.3,0.9,2.4,1.1,3.6c0.2,1.2,0.4,2.4,0.4,3.6c0,2.4-0.5,4.9-1.4,7.2c-1.9,4.5-5.6,8-9.6,10.4
			c-4,2.5-8.4,4.1-12.8,5.3c-4.4,1.2-9,2.1-13.5,2.7c-9,1.2-18,2.5-27,3.6c-9,1.1-18.1,2.1-27.2,2.4c-4.6,0.1-9.2,0.1-13.8-0.7
			c-2.3-0.3-4.7-0.9-6.9-1.9c-1.1-0.5-2.2-1.1-3.3-2c-0.5-0.4-1-0.9-1.4-1.4c-0.4-0.6-0.8-1.1-1.1-1.8c-0.3-0.6-0.6-1.3-0.7-1.9
			l-0.2-1l0-1c0-0.3,0-0.7,0-1l0.1-1c0-0.3,0.1-0.6,0.1-1l0.2-0.9c0.1-0.6,0.3-1.2,0.5-1.8c0.2-0.6,0.4-1.1,0.6-1.7l0.7-1.7l0.8-1.6
			c1.1-2.1,2.3-4.1,3.6-6.1c1.4-1.9,2.9-3.7,4.5-5.4c1.6-1.7,3.4-3.3,5.3-4.7c1.9-1.4,3.9-2.7,6-3.8c2.1-1.1,4.3-2,6.6-2.6
			c2.3-0.6,4.7-1,7.1-1.1c2.4-0.1,4.8,0.2,7.2,0.7c2.4,0.5,4.6,1.5,6.7,2.5c4.2,2.3,7.9,5.4,10.9,9c0.6,0.7,0.5,1.7-0.2,2.3
			c-0.7,0.6-1.7,0.5-2.3-0.2l0,0c-2.9-3.3-6.2-6.1-10-8.1c-3.8-1.9-8-3-12.3-2.8c-2.1,0.1-4.2,0.4-6.3,1c-2.1,0.6-4.1,1.4-6,2.4
			c-1.9,1-3.7,2.2-5.5,3.5c-1.7,1.3-3.4,2.8-4.9,4.3c-1.5,1.6-2.9,3.3-4.2,5c-1.3,1.8-2.4,3.7-3.3,5.6c-1,1.9-1.7,4-2.3,6
			c-0.5,2-0.5,4,0.2,5.6c0.7,1.6,2.3,2.8,4.2,3.7c1.9,0.8,4,1.4,6.1,1.7c4.3,0.7,8.8,0.8,13.3,0.8c9-0.1,18-1,27-2
			c9-1,18-2.2,27-3.3c4.4-0.6,8.9-1.4,13.2-2.6l1.6-0.5l1.6-0.5c1.1-0.3,2.1-0.7,3.1-1.2c1-0.4,2-0.9,3-1.4c0.5-0.3,1-0.5,1.4-0.8
			c0.5-0.3,1-0.5,1.4-0.8c3.7-2.3,6.9-5.4,8.4-9.3c0.7-1.9,1.1-4,1-6.1c0-1-0.2-2.1-0.4-3.1c-0.2-1-0.6-2.1-1-2.9l0-0.1
			c-0.4-0.7,0-1.6,0.7-2C249.4,654.6,250.3,654.9,250.7,655.7C250.7,655.6,250.7,655.7,250.7,655.7z"/>
	</g>
	<path class="st2" d="M388.9,640.8c0,0,15.3,4.7,28.3,15.9c17.1,14.7-62.5,14.7-62.5,14.7L332,652.8L388.9,640.8z"/>
	<g>
		<path class="st3" d="M401.5,664.9c18.6-28,50.2-10.4,58.9,9.4c8.7,19.7-30.3,19-77.5,18.6c-47.2-0.4-38.9-27.6-38.9-27.6"/>
		<path d="M400.2,664c2.7-3.9,5.9-7.4,9.9-10.1c3.9-2.7,8.6-4.3,13.4-4.7c4.8-0.4,9.5,0.5,13.9,2.2c4.4,1.7,8.4,4.1,12,7.1
			c3.6,3,6.7,6.5,9.2,10.4c1.2,2,2.3,4,3.2,6.3c0.8,2.2,1.1,4.9,0.2,7.3c-1,2.4-3,4.1-5,5.2c-2.1,1.2-4.3,1.9-6.5,2.6
			c-4.5,1.2-9,1.8-13.6,2.3c-9.1,0.9-18.2,1.1-27.4,1.1c-9.1,0.1-18.2-0.1-27.3-0.1c-4.6,0-9.2-0.4-13.7-1.1c-4.5-0.8-9.1-2-13.3-4
			c-4.2-2-8.1-5.2-10.4-9.5c-1.2-2.1-1.9-4.5-2.2-6.9c-0.1-1.2-0.2-2.4-0.1-3.6c0.1-1.2,0.2-2.4,0.6-3.6c0.2-0.6,0.8-1,1.4-0.8
			c0.6,0.2,1,0.8,0.8,1.4l0,0l0,0.1c-0.5,1.9-0.7,4.2-0.5,6.3c0.2,2.1,0.8,4.2,1.8,6.1c2,3.8,5.4,6.8,9.4,8.8c3.9,2,8.3,3.2,12.7,4
			c4.4,0.8,8.9,1.1,13.5,1.2c9.1,0.1,18.2,0.2,27.3,0.2c9.1-0.1,18.2-0.2,27.2-1.1c4.5-0.5,9-1.1,13.3-2.3c2.1-0.6,4.3-1.4,6.1-2.5
			c1.9-1.1,3.5-2.5,4.3-4.4c0.7-1.9,0.5-4.1-0.2-6.1c-0.7-2-1.8-4-3-5.9c-2.4-3.7-5.5-7.1-8.9-9.9c-3.5-2.8-7.4-5.1-11.5-6.6
			c-4.1-1.5-8.6-2.3-12.9-1.8c-4.3,0.4-8.5,2-12,4.5c-3.6,2.5-6.5,5.9-8.9,9.6l0,0c-0.5,0.7-1.4,0.9-2.1,0.4S399.7,664.7,400.2,664
			C400.2,664,400.2,664,400.2,664z"/>
	</g>
	<path class="st4" d="M365.5,417.1c22.2,3,83.4,9.9,109.3-0.2c6.4-2.5,12.5,4.3,9.1,10.3c-12,21.2-52.1,48.5-85.4,56.3
		c-34.9,8.2-40.6-38.8-41.3-58.8C357.1,420.1,361.1,416.5,365.5,417.1z"/>
	<path class="st4" d="M241.5,426.2c-22.2,3-83.4,9.9-109.3-0.2c-6.4-2.5-12.5,4.3-9.1,10.3c12,21.2,52.1,48.5,85.4,56.3
		c34.9,8.2,40.6-38.8,41.3-58.8C249.9,429.2,246,425.6,241.5,426.2z"/>
	<g>
		<path class="st5" d="M276,369.8c0,0-107.5,77.1-126.7,170.8s26.2,124,143.3,124S507.4,648.1,456.5,531s-97.8-188.7-97.8-188.7
			L276,369.8z"/>
		<path d="M276.4,370.7l-2.8,2.1l-2.9,2.2c-1.9,1.5-3.8,3-5.7,4.6c-3.8,3.1-7.5,6.2-11.1,9.4c-7.3,6.4-14.5,13-21.4,19.8
			c-13.8,13.7-26.8,28.2-38.5,43.7c-11.6,15.5-22.1,32-30.1,49.6l-1.5,3.3l-0.7,1.7l-0.7,1.7l-2.7,6.7l-2.4,6.8
			c-0.4,1.1-0.8,2.3-1.1,3.5l-1,3.5c-2.6,9.3-4.4,18.8-5.7,28.4c-1.2,9.6-1.7,19.3-1.1,28.8c0.7,9.6,2.8,19,6.7,27.6
			c0.4,1.1,1,2.1,1.6,3.2c0.6,1,1.1,2.1,1.7,3.1l2,3c0.3,0.5,0.6,1,1,1.5l1.1,1.4c0.7,0.9,1.5,1.9,2.2,2.8l2.4,2.6
			c0.4,0.4,0.8,0.9,1.2,1.3l1.3,1.2l2.7,2.4c7.4,5.9,16,10.4,25,13.7c9,3.4,18.4,5.7,27.9,7.4c9.5,1.7,19.1,2.8,28.8,3.6
			c9.7,0.7,19.4,1.1,29.1,1.3c9.7,0.1,19.4,0.1,29.2-0.1c19.4-0.4,38.9-1.3,58.1-3.6c9.6-1.2,19.2-2.7,28.6-4.8
			c9.4-2.1,18.7-4.9,27.5-8.6c8.8-3.7,17.2-8.5,24.2-14.8c7-6.3,12.5-14.2,15.5-23.1c3.1-8.9,3.8-18.5,3-28
			c-0.8-9.5-3-18.9-5.9-28.1c-1.5-4.6-3.2-9.1-4.9-13.6c-0.9-2.2-1.9-4.5-2.8-6.7l-2.9-6.7l-5.9-13.4l-6.1-13.3
			c-4-8.9-8.3-17.6-12.4-26.4c-4.3-8.7-8.5-17.5-12.9-26.2c-8.7-17.4-17.6-34.7-27-51.8c-9.3-17.1-18.9-34.1-29.1-50.6l0,0l1.2,0.4
			L276.4,370.7z M275.5,368.9l82.8-27.6l0.7-0.2l0.4,0.6l0,0c21.3,32.7,40.2,67,58,101.7c4.5,8.7,8.7,17.5,13.1,26.2
			c4.2,8.8,8.5,17.6,12.5,26.5l6.1,13.3l6,13.4l3,6.7c1,2.2,1.9,4.5,2.9,6.8c1.8,4.6,3.5,9.2,5,13.9c3,9.4,5.3,19.1,6.1,29
			c0.8,9.9,0.1,20.2-3.2,29.8c-3.3,9.6-9.2,18.3-16.7,24.9c-7.5,6.7-16.3,11.7-25.4,15.5c-9.1,3.8-18.7,6.6-28.2,8.8
			c-9.6,2.2-19.3,3.7-29,4.9c-19.5,2.3-39,3.2-58.6,3.5c-9.8,0.2-19.5,0.2-29.3,0c-9.8-0.2-19.6-0.6-29.3-1.4
			c-9.8-0.8-19.5-2-29.2-3.8c-9.7-1.8-19.3-4.2-28.5-7.7c-9.2-3.5-18.2-8.2-26-14.5l-2.8-2.5l-1.4-1.3c-0.5-0.4-0.9-0.9-1.3-1.4
			l-2.6-2.7c-0.8-0.9-1.6-2-2.4-2.9L157,627c-0.4-0.5-0.7-1-1.1-1.6l-2.1-3.1c-0.7-1.1-1.2-2.2-1.8-3.3c-0.6-1.1-1.2-2.2-1.7-3.4
			c-4.1-9.1-6.2-19-6.9-28.9c-0.7-9.9-0.1-19.8,1.2-29.5c1.3-9.7,3.2-19.4,5.9-28.9l1-3.5c0.3-1.2,0.7-2.4,1.1-3.5l2.5-7l2.8-6.8
			l0.7-1.7l0.8-1.7l1.5-3.3c8.3-17.8,19-34.4,30.8-50c11.9-15.5,25.1-30.1,39.1-43.7c7-6.8,14.2-13.4,21.6-19.8
			c3.7-3.2,7.5-6.3,11.3-9.4c1.9-1.5,3.8-3,5.8-4.5l2.9-2.2l1.5-1.1l0.7-0.5l0.4-0.3C275.2,369.2,275.4,369,275.5,368.9z"/>
	</g>
	<path class="st6" d="M198.2,653c-13-4.3-50.7-24.9-17.8-97.8s86.7-102.5,131.9-104.9s113.5,48.7,119.1,104.6
		c5.6,55.9-1.6,90.9-28.9,99.4C349.7,670.5,248,669.4,198.2,653z"/>
</g>
<g id="Layer_2">
	<g>
		<path class="st7" d="M408.9,388.7c-2.5-10.8-12.1-18.5-23.2-18.5h-27.2c0,0,0,0,0,0c-0.2,0-17.4,3.9-32.4,10.1c0,0-0.1,0-0.1,0
			c-3.2-6.8-8.7-10-8.8-10.1c0,0,0,0,0,0l-66.2-5.4c0,0,0,0,0,0c-4.3,0-23.8,6.8-27.2,9.5v0c-5.2,4.2-9,9.9-10.9,16.4
			c-1.4,4.9-3.4,10.7-6,15.3c0,0,0,0.1,0,0.1c14.1,13,55.7,19.7,85.6,15.4c0,0,0.1,0,0.1,0.1c0.1,2.1,0.4,4.3,1,6.6
			c3.4,11.7,6.2,28.2,0,44.1c0,0,4.1-11.7,26.2-24.1c15.2-8.5,11.4-25.2,7.6-34.8c0,0,0,0,0,0c0,0,14.6,13.3,18.4,30.4
			c0.5,2.4,3.8,2.7,4.9,0.5c3.4-7.3,7.2-18.5,2.9-25.8c-0.3-0.5-0.6-0.9-0.9-1.3c27.1,2.5,55.8,1.2,58-3
			C413,410.1,411.2,398.8,408.9,388.7z"/>
		<path class="st7" d="M345.8,379.3C345.8,379.3,345.8,379.3,345.8,379.3c0.1,0.1,10.2,7.5,3.3,15.7c-6.9,8.3-22.4,12.4-26.9,0
			C317.8,382.6,338.6,375,345.8,379.3z"/>
		<path class="st7" d="M307.4,389.2c0,0-1.7,17.6,13.4,12.4c14.6-5,19.3-18.3,19.6-19.2c0,0,0-0.1,0-0.1c-1.4-0.4-30.4-8.9-33.1,5.2
			"/>
		<path class="st8" d="M292.8,421.5c0,0,25.5-2.9,35.6-18.6"/>
		<path class="st5" d="M326,204.5c15.1-9.6,19.3-38.4,11.1-42.7c0,0-0.1,0-0.1,0c-1.4,9.6-10.7,25.6-23,23c0,0-0.1-0.1,0-0.1
			c8.2-5.6,20.4-26,8.3-34.3c0,0-0.1,0-0.1,0c-0.1,18.7-29.9,25.7-31.6,26c0,0-0.1,0-0.1-0.1c0.4-1.7,8.5-30.3-12.3-39.8
			c0,0-0.1,0-0.1,0c-8.3,66-111.8,66.4-102.2,175.2c7.3,82.4,130.8,84,130.9,84c0,0,0,0,0,0c0,0,114.2-10.2,125.4-77.1
			c11-66.1-22.5-125.6-93.4-135.2"/>
		<path d="M324.5,203.3c3.3-2.4,5.8-5.6,7.7-9c1.9-3.5,3.3-7.2,4.2-11c0.9-3.8,1.3-7.8,1.1-11.5c-0.1-1.9-0.4-3.7-1-5.3
			c-0.5-1.6-1.5-2.7-2.2-2.9l0,0l4.3-2.2c0,0,0.1,0,0.1,0.1c-0.7,3.2-1.8,6.1-3.2,8.9c-1.4,2.8-3.1,5.5-5.2,7.9
			c-2.1,2.4-4.5,4.5-7.5,5.9c-2.9,1.4-6.4,1.7-9.4,0.8l0,0c-0.3,0-0.6-0.4-0.5-0.7c0-0.2,0.1-0.3,0.2-0.4l0.1-0.1
			c2.6-2,4.7-4.6,6.5-7.3c1.8-2.8,3.3-5.7,4.3-8.8c1-3.1,1.5-6.3,1-9.2c-0.5-2.9-2.1-5.2-4.5-6.6l0,0l2.6-2.3c0,0,0.1,0,0.1,0.1
			c-0.1,4.2-0.6,8.6-3,11.7c-2.4,3.2-5.5,5.7-8.8,7.7c-3.3,2-6.7,3.6-10.2,4.9c-3.5,1.3-7.1,2.4-10.8,3.1l0,0
			c-0.5,0.2-1.1-0.1-1.2-0.6c0-0.1-0.1-0.3,0-0.4l0-0.2c0.3-3.6,1.6-7.1,1.3-10.8c-0.3-3.6,0-7.2-1-10.5c-1-3.3-1.5-5.8-3.8-11
			c-2-2.3-4.2-4.5-6.9-5.3l-1.7,3.2V133c0-0.1,2.2,1.7,2.2,1.7c-1.8,4.1-1.2-2-2.2,6.7c-0.5,2.2-0.2,10.6-5.7,17.8
			c-4.1,7-9.5,13.3-15.2,18.8c-11.6,11.2-24.8,20.4-36.9,30.7c-6.1,5.2-11.9,10.5-17.2,16.5c-5.3,5.9-10,12.3-13.9,19.1
			c-3.8,6.9-6.9,14.2-8.9,21.8c-2.1,7.6-3.2,15.4-3.5,23.3c-0.6,15.7,0.3,31.9,7.3,45.9c6.7,14,18.4,25.2,31.7,33.3
			c13.4,8.1,28.4,13.6,43.7,17.4c7.7,1.9,15.5,3.4,23.3,4.5c7.8,1.1,15.8,1.9,23.6,2.1l-0.2,0c6.9-0.7,14-1.9,20.9-3.2
			c6.9-1.4,13.8-3,20.6-4.9c13.6-3.9,35-12.9,47.3-19.6c0,0,0,0,0,0c24.8-17.6,43.1-46.6,33.6-103.1c0,0,0,0,0,0
			c-3.5-13.3-10.3-27.5-18.6-38.2c-8.3-10.8-19.3-19.8-31.3-26.2c-12-6.4-24.4-11.3-38-13.1c0,0,0,0-0.1,0c-0.7-2.7-1.2-3.2-1.6-6.5
			l0,0c14.6,2,29.1,6.3,42.3,13.4c13.2,7.1,24.9,17,33.9,29c9.1,11.9,15.4,25.8,19,40.1c3.6,14.4,4.6,29.3,3.4,43.9
			c-0.3,3.7-0.7,7.3-1.3,10.9c-0.5,3.6-1.3,7.4-2.4,11c-2.2,7.3-6,14-10.6,19.9c-4.6,5.9-9.9,11.1-15.7,15.6
			c-5.7,4.6-11.9,8.5-18.3,12c-12.8,6.9-26.5,11.8-40.4,15.7c-6.9,1.9-14,3.6-21,4.9c-7.1,1.4-14.1,2.5-21.4,3.2l0,0
			c-0.1,0-0.2,0-0.2,0c-8.2-0.2-16.1-1.1-24.1-2.2c-8-1.1-15.9-2.7-23.7-4.6c-15.6-3.9-31-9.5-44.9-18c-6.9-4.3-13.5-9.3-19.2-15.2
			c-5.7-5.9-10.5-12.7-14-20.2c-3.5-7.4-5.7-15.5-6.5-23.6c-0.8-8.1-1.1-16.2-0.5-24.2c0.5-8.1,1.9-16.1,4.1-23.9
			c2.2-7.8,5.5-15.3,9.6-22.3c8.2-14,19.8-25.6,32-35.9c6.1-5.1,12.4-10.1,18.6-15.1c6.2-5,12.3-10.1,17.9-15.7
			c5.6-5.6,10.7-11.7,14.4-18.6c3.6-6.8,3.4-24.4,5.2-24.9c3.9-1.2,13.5,3.8,15.6,7.8c2.2,3.9,3.3,8.1,3.7,12.2
			c0.5,4.1,0.3,8-0.1,11.9c-0.5,3.9-1.2,7.6-2.3,11.4L290,175l0,0c3.4-0.9,6.9-2.2,10.2-3.6c3.3-1.5,6.5-3.2,9.3-5.2
			c2.9-2,5.5-4.4,7.3-7.2c1.8-2.7,1.7-6.1,1.6-9.3c0-1.3,1-2.6,2.3-2.6c0.5,0,2.1,0.5,2.5,0.8l0,0l0,0c1.6,1.2,3.1,2.7,4.1,4.5
			c1,1.8,1.5,3.8,1.7,5.7c0.3,3.9-0.7,7.5-2.1,10.7c-1.4,3.3-3.2,6.2-5.4,9c-2.2,2.7-4.6,5.3-7.6,7.1l-0.2-1.2l0,0
			c2.8,0.4,5.6-0.2,7.9-1.7c2.3-1.5,4.2-3.6,5.7-5.9c1.5-2.3,2.7-4.9,3.6-7.6c0.9-2.6,1.5-5.3,1.7-7.9c0.1-1.4,1.3-2.7,2.6-2.8
			c0.6,0,1.1,0.1,1.5,0.3l0.2,0.1l0,0c1.5,0.8,2.6,2.1,3.2,3.2c0.7,1.2,1.1,2.4,1.4,3.6c0.6,2.3,0.6,4.6,0.5,6.8
			c-0.2,4.4-1.2,8.5-2.6,12.5c-1.4,4-3.3,7.7-5.8,11.1c-2.4,3.4-5.5,6.4-9.1,8.4c-0.1,0.1-0.3,0-0.4-0.1
			C324.3,203.6,324.4,203.4,324.5,203.3z"/>
	</g>
	<path class="st6" d="M390.8,245.8c-21.6-40.5-83.6-37.7-93.7-26.6c-11-8.3-47.8-29.4-86.3,25.7s-19.2,100.1,8.3,130.4
		c39.5,25.7,89.1,18.4,89.1,18.4s70.7-8.3,90.9-35.8C419.3,330.3,409.4,280.7,390.8,245.8z"/>
	<g class="st9">
		<path d="M322.1,447.6C322.1,447.6,322.1,447.6,322.1,447.6c1.8-0.9,3-2.5,3.9-4.4C325,444.8,323.7,446.3,322.1,447.6z"/>
		<path d="M293.2,472.1c0,0,12.6-12.9,22.7-20.4C301.5,460.2,295.5,468.2,293.2,472.1z"/>
		<path d="M293.6,436.3c-1-3.6-2.5-7.3-4.5-10.9c-7.2,0.3-14.5,0.1-21.4-0.5c-16.2-0.4-33-3.1-45.7-7.6c0,0-0.1,0-0.1,0s0,0,0,0
			c-0.5-0.2-1-0.3-1.5-0.5c-1.4,0.3-3.8,2.5-7.7,10.8c33.5,12.5,58.1,10.2,67.7,7.8c7.2,14.1,0,35.5,1.7,38.9
			c1.1,2.2,8.2-6.5,13-12.9C296.3,452.6,295.3,443.8,293.6,436.3z"/>
		<path d="M347.8,447.8c-0.2,0.3-0.3,0.6-0.4,0.8c0.3-0.3,0.6-0.6,0.8-1.1C348,447.6,347.9,447.7,347.8,447.8z"/>
		<path d="M344.2,446c-3.5-12.4-18.4-30.5-18.4-30.5l0,0c2.1,5.3,4.2,12.8,3.1,19.9c3.8,6.6,8.1,14.1,9.8,17.3
			c2.5,4.5,5,2.4,8.6-4.2C346.2,449.7,345.1,449.3,344.2,446z"/>
		<path d="M404.1,418.7c-5.3,1.2-14.2,1.9-24.6,2l-1.9,0.2l-0.7-0.2c-8.2,0-17.1-0.5-25.9-1.3c0.3,0.4,0.6,0.8,0.9,1.3
			c1.6,2.7,2.1,6,1.9,9.4l0,0c0,0,0,0,0,0c-0.2,3.2-1,6.5-2.1,9.7c0,0,0,0,0,0c25.2,0,59.5-4.3,59.5-4.3L404.1,418.7z"/>
	</g>
	<g id="Layer_10">
		<path class="st9" d="M435.3,484.4c0,0,27.8,75.3-7.9,112.3c-51.8,53.6-188.2,66.5-188.2,66.5s101.8,17.1,188.2-16.4
			C513.9,613.2,451.8,518.4,435.3,484.4z"/>
	</g>
	<g>
		<path d="M353.2,424.1c-1.4-1.4-2.6-2.8-3.8-4.2c-1.3-1.4-2.3-2.9-3.7-4.2c-0.6-0.7-1.4-1.3-2.1-1.9c-0.7-0.6-1.5-1.2-2.2-1.7
			c-1.5-1.1-3.2-2-4.9-2.8l0,0c0,0-0.1-0.1,0-0.1c0,0,0.1-0.1,0.1-0.1c1.8,0.5,3.7,1.2,5.4,2.1c0.9,0.4,1.7,1,2.5,1.5
			c0.8,0.6,1.6,1.1,2.3,1.7c1.5,1.2,3.1,2.5,4.2,4.1c1.1,1.6,2,3.4,2.4,5.3C353.4,424.1,353.4,424.1,353.2,424.1
			C353.3,424.1,353.2,424.1,353.2,424.1L353.2,424.1z"/>
	</g>
</g>
<g id="Scarf">
</g>
<g id="Layer_4">
	<circle class="st10" cx="249.4" cy="255.9" r="10.1"/>
	<circle class="st10" cx="344" cy="255.9" r="10.1"/>
	<circle class="st11" cx="373.3" cy="253.2" r="56.9"/>
	<circle class="st11" cx="221.9" cy="253.2" r="56.9"/>
	<line class="st11" x1="316.4" y1="253.2" x2="278.8" y2="253.2"/>
	<g>
		<path class="st12" d="M269.6,310.1c0,0,34-33.1,60.6-3.7c-13.8,20.2-26.6,40.4-26.6,40.4L269.6,310.1z"/>
		<path d="M269.6,310.1c2-2,4.2-3.9,6.5-5.6c2.3-1.7,4.7-3.3,7.2-4.8c5-2.9,10.5-5.1,16.2-6.1c2.9-0.5,5.9-0.6,8.8-0.3
			c2.9,0.3,5.9,0.9,8.6,2c2.8,1.1,5.4,2.5,7.8,4.3c1.2,0.8,2.3,1.8,3.5,2.8c1.1,1,2.1,2.1,3.1,3.1l0.8,0.8l-0.7,1l-13.4,20.1
			l-13.3,20.2l-0.9,1.4l-1.1-1.2c-2.9-3.1-5.7-6.3-8.5-9.5l-8.3-9.5L269.6,310.1z M269.6,310.1l17.8,18.1l8.6,8.9
			c2.8,3,5.7,5.9,8.5,8.9l-2,0.2c4.3-6.9,8.6-13.7,13-20.4c2.2-3.4,4.4-6.8,6.7-10.1l6.8-10l0.1,1.8c-3.7-4.1-8.1-7.6-13.2-9.7
			c-5-2.1-10.7-2.8-16.2-2c-5.5,0.7-10.9,2.6-16,5.1C278.7,303.3,273.9,306.4,269.6,310.1z"/>
	</g>
</g>
<g id="Layer_8">
	<g>
		<path class="st13" d="M425.1,249.5c1,4.1,1.5,8.4,1.5,12.9c0,30.7-24.9,55.6-55.6,55.6c-30.7,0-55.6-24.9-55.6-55.6
			c0-30.7,24.9-55.6,55.6-55.6c13.4,0,25.7,4.8,35.3,12.7c-4.3-4.7-9-9.1-14.2-13c-6.6-2.5-13.6-3.8-21.1-3.8
			c-33,0-59.8,26.8-59.8,59.8c0,1.6,0.1,3.1,0.2,4.6l0,0h-34.3v4.9H312c4.6,28.5,29.3,50.3,59,50.3c31.5,0,57.4-24.5,59.6-55.5
			C429.2,260.7,427.4,255,425.1,249.5z"/>
		<path class="st14" d="M226.3,203.2c-1.5,1.2-3.1,2.5-4.6,3.7c28.7,2.1,51.5,26.2,51.5,55.4c0,30.7-24.9,55.6-55.6,55.6
			c-18.8,0-35.5-9.4-45.5-23.8c-0.1,2.2-0.2,4.4-0.2,6.6c11,13,27.4,21.3,45.7,21.3c33,0,59.8-26.8,59.8-59.8
			C277.4,232.4,255.1,207.5,226.3,203.2z"/>
	</g>
</g>
<g id="Layer_9">
</g>
<g id="Layer_6">
	<path class="st15" d="M275.8,316.9c0,0,6.9-10.7,25.2-12.3c18.3-1.6,22.8,11.2,22.8,11.2l6.4-9.4c0,0-7.5-15.4-28.7-12
		c-19.3,3.1-31.9,15.7-31.9,15.7L275.8,316.9z"/>
</g>
<g id="Layer_7">
	<path class="st9" d="M355.1,686.9c0,0,15.9-22.3,45.7-23.1c3.9-7.2,7.3-9.7,7.3-9.7L344,665.3C344,665.3,340,677.7,355.1,686.9z"/>
	<path class="st9" d="M236,684.5c0,0-21-17.5-47.8-27.2c-1.7-0.6,4.6-4.3,4.6-4.3s21.8,9.4,56.9,12.6
		C249.8,666.7,251.6,677.4,236,684.5z"/>
	<path class="st9" d="M357.3,187.8c0,0,51.2,39.7,56.8,80.8c5,36.9,8.1,80.1-69.1,118.3c57.2-14.3,66.4-32.5,66.4-32.5
		s27.2-29.5,23-63C430.1,257.7,408.9,198.6,357.3,187.8z"/>
	<path class="st16" d="M461.6,420.8c0,0,27.9,8.9-31.3,45.4c1.7,11.2,4,3.1,4,3.1l27.5-18.1c0,0,17.4-12.9,22.2-24.1
		s-5.7-11.4-9.1-10.3C471.4,418.1,461.6,420.8,461.6,420.8z"/>
	<path class="st9" d="M208.4,429.9l-22.5,1.2c0,0-24.6,23.8-21,41c4.4,4.5,7.1,6,7.1,6L208.4,429.9z"/>
</g>
</svg>
