<?xml version="1.0" standalone="no"?>
<!DOCTYPE svg PUBLIC "-//W3C//DTD SVG 20010904//EN"
 "http://www.w3.org/TR/2001/REC-SVG-20010904/DTD/svg10.dtd">
<svg version="1.0" xmlns="http://www.w3.org/2000/svg"
 width="600.000000pt" height="324.000000pt" viewBox="0 0 600.000000 324.000000"
 preserveAspectRatio="xMidYMid meet">
<metadata>
Created by potrace 1.15, written by Peter Selinger 2001-2017
</metadata>
<g transform="translate(0.000000,324.000000) scale(0.100000,-0.100000)"
fill="#000000" stroke="none">
<path d="M1178 2873 c-10 -2 -34 -40 -57 -89 -22 -46 -63 -125 -91 -175 -46
-82 -50 -93 -37 -107 14 -13 21 -6 70 69 30 46 80 132 111 190 47 89 54 108
40 113 -8 3 -16 5 -17 5 -1 -1 -10 -3 -19 -6z"/>
<path d="M4055 2867 c-14 -11 -16 -20 -10 -43 17 -63 5 -145 -61 -400 -58
-225 -67 -271 -68 -352 -1 -94 -1 -94 32 -123 35 -31 94 -39 133 -19 23 13 25
43 4 60 -8 7 -15 29 -15 50 0 21 -7 54 -15 73 -29 69 -19 131 74 490 57 219
60 251 32 267 -27 14 -84 13 -106 -3z"/>
<path d="M1192 2582 c-45 -69 -85 -135 -88 -146 -3 -15 3 -26 26 -41 16 -11
33 -19 37 -18 6 2 115 326 110 329 -1 0 -39 -55 -85 -124z"/>
<path d="M571 2492 c-33 -18 -71 -71 -71 -99 0 -9 15 -13 43 -13 50 0 107 -25
187 -81 l59 -41 38 30 c21 17 53 46 71 65 28 28 31 35 17 41 -9 3 -18 0 -21
-9 -9 -22 -20 -19 -77 24 -54 41 -171 101 -197 101 -8 0 -31 -8 -49 -18z"/>
<path d="M348 2475 c-98 -66 -143 -226 -93 -325 17 -33 72 -84 113 -104 43
-22 157 -35 219 -26 69 11 134 46 220 119 l72 60 66 -31 c58 -26 66 -34 61
-52 -4 -11 -9 -51 -13 -87 -10 -110 27 -159 120 -159 60 1 107 46 107 102 0
28 -9 33 -52 29 -9 -1 -22 8 -28 20 -14 26 -18 145 -7 209 8 45 7 46 -26 58
-46 16 -47 16 -59 -18 l-10 -31 -33 26 c-19 14 -36 25 -39 25 -3 0 -34 -23
-68 -50 -59 -48 -147 -90 -188 -90 -10 0 -40 -11 -66 -25 -85 -45 -205 -30
-253 31 -20 25 -22 38 -19 89 3 33 1 78 -4 100 -6 27 -4 57 6 95 8 30 13 56
12 57 -1 1 -18 -8 -38 -22z"/>
<path d="M4306 2447 c-29 -42 -35 -59 -30 -83 3 -17 -4 -65 -16 -114 -12 -47
-26 -107 -30 -135 -5 -27 -14 -75 -20 -105 -23 -106 5 -200 65 -226 72 -30
151 -10 180 46 26 49 20 68 -22 76 -52 9 -70 28 -90 90 -19 63 -12 135 38 343
27 116 28 125 13 143 -28 30 -49 21 -88 -35z"/>
<path d="M3675 2460 c-9 -18 -13 -40 -9 -55 3 -14 -1 -42 -10 -66 -9 -22 -14
-45 -11 -50 4 -5 24 -9 46 -9 30 0 47 7 66 26 23 23 25 31 21 81 -4 46 -10 61
-32 80 -36 31 -52 29 -71 -7z"/>
<path d="M4636 2439 c-37 -38 -60 -72 -75 -114 -25 -65 -38 -181 -27 -239 6
-32 10 -36 36 -36 28 0 30 -3 30 -38 0 -31 5 -41 30 -55 16 -10 55 -22 86 -27
105 -17 205 24 243 98 l20 39 -49 -8 c-27 -4 -58 -12 -69 -18 -11 -6 -40 -11
-64 -11 -58 0 -94 28 -102 78 -3 20 -13 59 -22 86 -19 57 -14 165 12 239 9 27
14 51 11 55 -3 3 -30 -19 -60 -49z"/>
<path d="M3454 2448 c-53 -47 -77 -92 -104 -190 -48 -181 8 -297 158 -329 74
-15 138 -5 187 29 37 26 90 90 81 99 -5 5 -84 -11 -142 -28 -35 -11 -46 -10
-80 7 -42 21 -50 36 -79 164 -15 65 -16 85 -6 144 7 38 18 84 26 103 18 42 6
42 -41 1z"/>
<path d="M2374 2423 c4 -16 -1 -55 -10 -88 -9 -33 -20 -82 -24 -110 -5 -27
-14 -72 -20 -100 -22 -104 16 -185 87 -185 64 0 96 39 57 71 -12 10 -14 23 -9
54 3 23 2 61 -4 84 -9 43 -2 120 21 224 15 69 8 77 -60 77 -42 0 -43 -1 -38
-27z"/>
<path d="M2667 2418 c-38 -51 -49 -76 -37 -83 14 -9 3 -44 -21 -71 -11 -11
-20 -38 -22 -60 l-2 -39 45 2 c50 2 84 24 118 73 32 48 29 60 -16 60 -35 0
-62 14 -62 31 0 3 18 18 40 33 45 30 50 48 18 70 -30 22 -33 21 -61 -16z"/>
<path d="M2936 2406 c-57 -54 -88 -133 -93 -240 -4 -81 -2 -96 19 -136 41 -80
137 -110 224 -71 35 16 114 93 114 111 0 4 -23 6 -51 5 -35 -2 -58 -10 -73
-24 -12 -12 -35 -21 -50 -21 -40 0 -53 42 -54 185 -1 106 5 160 25 211 10 26
-25 15 -61 -20z"/>
<path d="M1453 2411 c-16 -11 -40 -33 -52 -50 -52 -73 -85 -197 -61 -226 8 -9
10 -28 6 -48 -20 -108 172 -190 289 -124 36 20 85 77 85 98 0 16 -49 9 -82
-11 -32 -20 -90 -26 -123 -14 -25 10 -46 60 -44 107 0 23 -2 67 -6 97 -5 39
-2 74 9 119 9 35 15 65 13 67 -2 2 -17 -5 -34 -15z"/>
<path d="M1640 2410 c-10 -20 -29 -97 -33 -135 -3 -31 58 -34 89 -4 31 30 33
95 3 133 -24 31 -44 33 -59 6z"/>
<path d="M1942 2410 c-58 -35 -130 -173 -101 -191 12 -7 12 -13 0 -41 -28 -71
-23 -118 21 -174 51 -64 185 -85 263 -41 36 20 85 77 85 98 0 16 -49 9 -82
-11 -32 -20 -90 -26 -123 -14 -25 10 -46 60 -44 107 0 23 -2 67 -6 97 -5 39
-2 74 9 119 9 35 15 65 13 67 -2 2 -17 -6 -35 -16z"/>
<path d="M2130 2410 c-10 -20 -29 -97 -33 -135 -3 -31 58 -34 89 -4 31 30 33
95 3 133 -24 31 -44 33 -59 6z"/>
<path d="M3137 2413 c-7 -11 -37 -127 -37 -142 0 -6 9 -11 19 -11 24 0 35 -30
26 -69 -7 -35 6 -46 37 -30 41 21 58 51 58 106 0 47 -11 73 -37 85 -5 1 -15
16 -23 32 -16 30 -34 43 -43 29z"/>
<path d="M5114 1908 c3 -51 11 -282 16 -513 6 -231 13 -462 16 -512 l6 -93 89
0 89 0 0 65 c0 63 -1 65 -25 65 -14 0 -25 3 -25 8 0 4 -7 214 -15 467 -8 253
-15 493 -15 533 l0 72 -71 0 -70 0 5 -92z"/>
<path d="M3255 1748 c-11 -6 -23 -16 -27 -22 -12 -18 -9 -62 7 -92 8 -16 15
-41 15 -56 0 -27 2 -28 54 -28 30 0 57 4 60 8 3 5 8 46 12 92 6 74 5 84 -11
96 -23 17 -82 18 -110 2z"/>
<path d="M1926 1727 c-42 -26 -149 -128 -141 -135 2 -3 15 2 29 11 83 55 254
74 366 42 149 -45 269 -162 320 -315 18 -54 21 -82 18 -165 -3 -87 -8 -109
-36 -169 -18 -38 -31 -71 -29 -72 7 -7 110 104 134 142 19 33 23 53 23 123 0
160 -50 282 -165 397 -111 112 -236 164 -395 164 -71 0 -91 -4 -124 -23z"/>
<path d="M1634 1578 c-101 -109 -154 -235 -154 -368 0 -37 3 -69 6 -73 3 -3
22 0 42 7 l37 13 6 74 c4 41 14 92 22 114 9 22 23 69 32 105 9 36 29 91 45
124 17 33 28 61 26 63 -2 2 -30 -25 -62 -59z"/>
<path d="M4700 1418 c-40 -28 -71 -84 -77 -142 -6 -51 24 -128 57 -146 20 -11
21 -9 18 27 l-3 38 60 0 c33 0 70 -4 81 -8 18 -6 24 -2 37 25 l16 33 -35 6
c-65 11 -112 83 -101 155 7 41 -6 44 -53 12z"/>
<path d="M678 1401 c-46 -29 -141 -121 -133 -129 2 -3 15 2 29 11 83 55 254
74 366 42 106 -32 209 -110 271 -206 17 -27 35 -49 40 -49 5 0 15 -10 23 -23
13 -19 14 -46 7 -163 -7 -129 -11 -147 -40 -209 -17 -37 -30 -70 -28 -72 7 -6
101 93 129 136 24 38 28 55 28 114 0 59 3 70 19 74 11 3 21 17 25 35 11 56 9
59 -29 52 -30 -5 -35 -4 -35 14 0 46 -74 167 -144 237 -116 115 -235 165 -396
165 -78 0 -91 -3 -132 -29z"/>
<path d="M2943 1391 c-23 -11 -46 -28 -52 -39 -15 -28 -14 -84 3 -107 12 -17
19 -17 90 -6 92 15 206 6 206 -16 0 -8 -18 -78 -39 -156 -136 -490 -161 -604
-161 -727 0 -157 65 -239 191 -240 53 0 112 33 117 66 4 26 -33 67 -81 89 -25
12 -47 33 -65 64 -26 44 -27 52 -25 166 1 134 10 177 97 500 32 116 68 249 81
297 l23 87 -65 7 c-61 6 -108 3 -195 -12 -34 -6 -38 -4 -48 20 -11 31 -21 32
-77 7z"/>
<path d="M3895 1370 c-27 -5 -112 -9 -187 -9 l-138 -1 -6 -27 c-8 -36 -14 -64
-20 -85 -11 -38 280 -16 371 28 41 19 65 49 65 81 0 25 -2 25 -85 13z"/>
<path d="M394 1258 c-107 -115 -154 -234 -154 -391 0 -167 49 -287 165 -402
115 -115 236 -165 400 -165 157 0 279 48 393 154 34 32 61 60 59 62 -2 2 -30
-9 -63 -26 -33 -16 -88 -37 -124 -46 -36 -9 -91 -25 -124 -35 -73 -25 -199
-26 -276 -4 -148 44 -269 162 -319 312 -26 76 -28 207 -6 279 9 27 25 82 35
123 11 41 33 101 50 134 17 33 28 62 26 64 -2 2 -30 -25 -62 -59z"/>
<path d="M1746 1161 c-21 -23 -17 -40 24 -104 21 -34 36 -47 53 -47 61 0 92
103 44 148 -31 29 -97 30 -121 3z"/>
<path d="M1533 1064 c-29 -12 -33 -19 -33 -54 0 -22 3 -40 8 -40 4 0 20 -24
35 -53 15 -30 40 -69 55 -87 l28 -33 47 14 c26 7 47 16 47 19 0 4 -11 17 -25
30 -36 34 -80 107 -101 168 -10 28 -21 52 -24 51 -3 0 -20 -7 -37 -15z"/>
<path d="M4567 1064 c-3 -4 -4 -34 -1 -68 5 -52 -2 -91 -45 -258 -101 -398
-94 -561 28 -625 117 -61 266 12 190 93 -12 13 -28 24 -36 24 -7 0 -32 19 -57
43 -90 86 -89 219 5 585 27 107 47 198 43 203 -6 10 -117 13 -127 3z"/>
<path d="M3672 983 c-70 -71 -103 -131 -137 -248 -54 -184 -42 -387 28 -492
84 -126 265 -169 411 -97 51 25 173 130 163 140 -2 3 -24 -5 -50 -16 -64 -28
-125 -35 -201 -20 -125 23 -205 105 -242 250 -32 125 -2 345 65 479 17 34 29
61 25 61 -3 0 -31 -26 -62 -57z"/>
<path d="M4009 981 c-56 -58 -60 -71 -23 -71 14 0 34 -5 46 -11 l20 -11 -20
-21 c-24 -26 -47 -99 -39 -121 4 -10 18 -16 36 -16 20 0 36 -9 51 -27 30 -38
23 -104 -23 -217 -19 -47 -30 -86 -25 -86 21 0 67 42 98 89 43 67 100 231 100
286 0 51 -25 85 -64 85 -38 0 -49 22 -36 71 10 37 9 45 -8 68 -32 43 -58 39
-113 -18z"/>
<path d="M1012 927 c-31 -33 -30 -96 1 -125 33 -31 96 -30 125 1 31 33 30 96
-1 125 -33 31 -96 30 -125 -1z"/>
<path d="M2457 821 c-28 -18 -70 -33 -245 -86 -115 -35 -225 -34 -329 0 -42
14 -77 24 -79 23 -1 -2 -5 -22 -8 -45 -5 -41 -4 -42 37 -57 79 -28 122 -36
211 -36 160 0 282 48 396 157 64 62 71 80 17 44z"/>
<path d="M1465 649 c-38 -15 -78 -30 -87 -32 -10 -3 -18 -12 -18 -20 0 -19
238 -199 258 -195 11 2 19 18 23 48 4 25 12 63 18 85 12 44 12 43 -84 113
l-40 29 -70 -28z"/>
<path d="M5153 570 c-44 -26 -63 -68 -63 -137 0 -102 51 -153 154 -153 45 0
60 5 87 27 25 22 59 76 59 96 0 3 -21 7 -46 10 -70 8 -124 69 -124 142 0 42
-17 46 -67 15z"/>
</g>
</svg>
