<?xml version="1.0" standalone="no"?>
<!DOCTYPE svg PUBLIC "-//W3C//DTD SVG 20010904//EN"
 "http://www.w3.org/TR/2001/REC-SVG-20010904/DTD/svg10.dtd">
<svg version="1.0" xmlns="http://www.w3.org/2000/svg"
 width="221.000000pt" height="158.000000pt" viewBox="0 0 221.000000 158.000000"
 preserveAspectRatio="xMidYMid meet">
<metadata>
Created by potrace 1.15, written by Peter Selinger 2001-2017
</metadata>
<g transform="translate(0.000000,158.000000) scale(0.100000,-0.100000)"
fill="#000000" stroke="none">
<path d="M910 1495 c0 -20 -7 -26 -42 -35 -95 -24 -209 -89 -331 -187 -108
-89 -198 -222 -228 -340 -12 -51 -14 -53 -46 -53 -32 0 -33 -1 -33 -43 0 -31
-6 -49 -20 -62 -43 -39 -23 -61 58 -67 31 -3 35 -7 51 -54 22 -66 157 -269
211 -318 23 -21 57 -44 76 -52 26 -11 33 -20 31 -37 -2 -21 1 -22 89 -25 l91
-3 -5 -26 -5 -26 144 6 c112 5 146 9 155 21 8 11 37 17 100 22 156 10 272 39
388 96 52 25 61 27 68 13 12 -20 46 -19 144 5 122 29 137 38 131 76 -5 26 0
37 29 65 46 45 44 79 -6 93 -19 5 -36 10 -38 11 -2 2 6 18 17 36 40 69 54 145
46 248 -9 123 -9 164 0 226 l8 50 -27 -24 c-14 -14 -28 -23 -30 -20 -16 18
-36 74 -36 101 0 21 -3 29 -10 22 -7 -7 -26 5 -59 37 -186 179 -453 263 -761
238 -97 -8 -106 -7 -125 11 -28 26 -35 25 -35 -5z m69 -96 l7 -54 37 37 37 36
0 -30 c0 -36 -15 -67 -44 -90 -11 -9 -18 -20 -14 -24 12 -12 65 54 70 87 3 17
2 46 -1 62 l-7 31 -29 -38 -30 -39 -12 43 c-7 24 -11 45 -9 48 12 11 261 13
341 3 108 -14 263 -65 340 -112 71 -43 195 -146 195 -162 0 -7 -14 -21 -32
-32 -18 -10 -27 -20 -20 -23 7 -2 28 8 47 23 22 16 35 21 35 13 0 -36 -24 -89
-47 -108 l-26 -20 40 0 c21 0 56 9 77 20 l38 19 -6 -32 c-3 -18 -20 -45 -37
-61 -26 -23 -38 -27 -66 -23 -49 8 -33 -6 31 -28 31 -11 56 -25 56 -33 0 -7
-12 -24 -26 -39 -23 -22 -32 -25 -80 -21 -55 5 -73 -5 -31 -16 64 -17 128 8
147 58 7 18 9 15 15 -18 12 -58 -9 -170 -44 -241 -30 -60 -33 -63 -76 -69 -30
-5 -51 -15 -64 -32 -10 -13 -28 -24 -38 -24 -11 0 -34 -5 -51 -11 -50 -17 -53
-56 -6 -78 l25 -11 -35 -30 c-81 -72 -286 -137 -462 -147 -91 -5 -115 -3 -135
10 -13 8 -41 19 -62 22 -21 4 -50 20 -65 35 -22 22 -41 29 -93 34 -59 6 -73 4
-143 -23 l-77 -31 -47 24 c-26 13 -61 39 -78 58 -68 72 -204 296 -204 336 0 7
13 12 30 12 27 0 30 3 30 29 0 23 5 30 21 33 12 2 27 11 33 21 9 15 6 23 -17
42 -15 13 -45 29 -67 35 -37 10 -40 13 -34 38 35 145 132 282 275 390 65 49
207 132 226 132 9 0 13 -16 13 -51 0 -34 4 -48 11 -43 6 3 9 24 7 44 -4 44 12
39 32 -10 24 -57 40 -26 40 75 l0 60 26 -26 c19 -19 28 -42 33 -80z m1000
-858 c12 -8 12 -13 -2 -34 -9 -14 -32 -37 -50 -51 -31 -24 -42 -26 -136 -26
-85 0 -103 3 -108 16 -12 31 25 46 99 41 37 -2 65 0 62 4 -3 5 -11 9 -19 9
-21 0 -28 19 -15 35 14 17 145 21 169 6z m-1132 -224 c-4 -11 5 -13 41 -9 38
3 51 0 66 -17 10 -11 16 -27 13 -36 -5 -13 -31 -15 -162 -15 -191 0 -199 9
-60 62 79 30 110 35 102 15z"/>
<path d="M1159 1338 c-119 -124 -149 -172 -149 -239 0 -16 -1 -29 -2 -29 -2 0
-48 43 -103 95 -54 53 -109 98 -121 101 -62 16 -131 -86 -169 -251 l-7 -30
-24 50 c-23 47 -24 48 -19 15 3 -19 24 -65 46 -103 69 -116 210 -203 371 -228
91 -14 308 -6 406 15 144 31 291 117 366 213 57 74 42 68 -39 -15 -41 -42 -77
-73 -80 -70 -3 2 4 25 15 50 28 65 50 155 50 211 0 38 -5 53 -26 74 -36 36
-47 33 -261 -54 -9 -3 -13 4 -13 22 0 39 -57 170 -90 205 -46 49 -79 42 -151
-32z m175 -40 c23 -46 41 -96 43 -125 5 -47 3 -50 -30 -76 l-35 -27 -16 48
c-22 64 -43 92 -69 92 -30 0 -115 -41 -153 -73 -41 -35 -48 -34 -40 5 8 38 39
81 125 171 59 62 68 68 101 65 33 -3 37 -8 74 -80z m-497 -97 c32 -27 78 -70
103 -95 43 -45 44 -47 31 -79 -8 -17 -23 -57 -33 -89 -22 -62 -32 -68 -109
-68 -60 0 -142 25 -176 54 l-27 23 13 70 c20 111 87 233 127 233 7 0 39 -22
71 -49z m840 -38 c13 -32 13 -46 3 -93 -18 -83 -70 -212 -94 -236 -11 -12 -53
-34 -92 -49 l-71 -27 -49 21 -49 21 1 125 c0 148 0 148 119 207 102 52 142 66
183 67 29 1 35 -4 49 -36z m-408 -22 c32 -75 44 -146 39 -237 -4 -69 -9 -89
-32 -124 -37 -56 -60 -63 -194 -55 -140 9 -147 15 -140 128 8 131 80 241 198
306 81 45 103 42 129 -18z"/>
<path d="M512 695 c-27 -23 -50 -71 -38 -82 3 -3 15 2 28 11 34 24 39 20 22
-19 -15 -38 -17 -99 -4 -130 6 -14 9 -15 9 -5 2 31 90 108 110 95 21 -12 32
-83 21 -126 -6 -23 -9 -43 -7 -45 2 -2 19 6 38 19 35 24 83 107 94 165 11 55
-9 35 -28 -28 -9 -33 -30 -74 -47 -92 l-29 -33 -1 48 c0 56 -23 117 -44 117
-8 0 -35 -16 -60 -35 -48 -36 -50 -36 -46 5 3 31 16 58 43 88 24 26 11 28 -40
7 -20 -8 -38 -14 -39 -12 -9 8 32 50 60 63 26 11 27 13 9 14 -12 0 -35 -11
-51 -25z"/>
</g>
</svg>
